<svg width="35" height="35" viewBox="0 0 35 35" fill="none" xmlns="http://www.w3.org/2000/svg">
<path d="M35 17.5C35 27.165 27.165 35 17.5 35C7.83499 35 0 27.165 0 17.5C0 7.83499 7.83499 0 17.5 0C27.165 0 35 7.83499 35 17.5ZM25.0045 15.007C25.3528 12.6784 23.5797 11.4266 21.1552 10.5915L21.9417 7.43715L20.0214 6.95865L19.2557 10.0299C18.7509 9.90408 18.2324 9.78546 17.7172 9.6679L18.4884 6.57647L16.5692 6.09797L15.7822 9.25122C15.3643 9.15603 14.9541 9.06197 14.556 8.96303L14.5582 8.95316L11.9099 8.29197L11.3991 10.3427C11.3991 10.3427 12.8238 10.6692 12.7938 10.6894C13.5715 10.8835 13.7121 11.3981 13.6885 11.8061L12.7926 15.3996C12.8463 15.4133 12.9157 15.433 12.9923 15.4636C12.9283 15.4477 12.8599 15.4302 12.7893 15.4133L11.5336 20.4472C11.4384 20.6834 11.1972 21.0378 10.6535 20.9033C10.6727 20.9312 9.25778 20.5549 9.25778 20.5549L8.30446 22.7528L10.8034 23.3757C11.2683 23.4922 11.7239 23.6141 12.1724 23.7289L11.3777 26.9194L13.2958 27.3979L14.0828 24.2413C14.5914 24.3792 15.1016 24.5115 15.6131 24.6384L14.8288 27.7801L16.7491 28.2586L17.5437 25.0742C20.8182 25.6938 23.2806 25.4439 24.317 22.4826C25.1522 20.0982 24.2754 18.7228 22.5526 17.8259C23.8072 17.5368 24.7523 16.7116 25.0045 15.007ZM20.617 21.1587C20.0235 23.5431 16.0085 22.2541 14.7068 21.9309L15.7614 17.7041C17.063 18.029 21.2372 18.6721 20.617 21.1587ZM21.2109 14.9725C20.6695 17.1414 17.3277 16.0395 16.2437 15.7693L17.1997 11.9358C18.2838 12.2059 21.7748 12.7101 21.2109 14.9725Z" fill="white"/>
</svg>
