<svg width="20" height="20" viewBox="0 0 20 20" fill="none" xmlns="http://www.w3.org/2000/svg">
<path d="M3.88911 3.04058C3.65479 2.80627 3.27489 2.80627 3.04058 3.04058C2.80627 3.27489 2.80627 3.65479 3.04058 3.88911L3.88911 3.04058ZM10.1116 10.9602C10.346 11.1945 10.7259 11.1945 10.9602 10.9602C11.1945 10.7259 11.1945 10.346 10.9602 10.1116L10.1116 10.9602ZM3.04058 3.88911L10.1116 10.9602L10.9602 10.1116L3.88911 3.04058L3.04058 3.88911Z" fill="#FFFFFF" fill-opacity="0.92"/>
<path d="M3.21245 15.94C2.97814 16.1743 2.97814 16.5542 3.21245 16.7885C3.44677 17.0228 3.82667 17.0228 4.06098 16.7885L3.21245 15.94ZM16.7889 4.0606C17.0232 3.82629 17.0232 3.44639 16.7889 3.21207C16.5546 2.97776 16.1747 2.97776 15.9404 3.21207L16.7889 4.0606ZM4.06098 16.7885L16.7889 4.0606L15.9404 3.21207L3.21245 15.94L4.06098 16.7885Z" fill="#FFFFFF" fill-opacity="0.92"/>
<path d="M9.88423 9.04058C9.64991 8.80627 9.27001 8.80627 9.0357 9.04058C8.80138 9.27489 8.80138 9.65479 9.0357 9.88911L9.88423 9.04058ZM16.1068 16.9602C16.3411 17.1945 16.721 17.1945 16.9553 16.9602C17.1896 16.7259 17.1896 16.346 16.9553 16.1116L16.1068 16.9602ZM9.0357 9.88911L16.1068 16.9602L16.9553 16.1116L9.88423 9.04058L9.0357 9.88911Z" fill="#FFFFFF" fill-opacity="0.92"/>
</svg>
