<svg width="20" height="20" viewBox="0 0 20 20" fill="none" xmlns="http://www.w3.org/2000/svg">
<path d="M1 3.4C0.668629 3.4 0.4 3.66863 0.4 4C0.4 4.33137 0.668629 4.6 1 4.6V3.4ZM11 4.6C11.3314 4.6 11.6 4.33137 11.6 4C11.6 3.66863 11.3314 3.4 11 3.4V4.6ZM1 4.6H11V3.4H1V4.6Z" fill="#000000" fill-opacity="0.92"/>
<path d="M1 9.4C0.668629 9.4 0.4 9.66863 0.4 10C0.4 10.3314 0.668629 10.6 1 10.6V9.4ZM19 10.6C19.3314 10.6 19.6 10.3314 19.6 10C19.6 9.66863 19.3314 9.4 19 9.4V10.6ZM1 10.6H19V9.4H1V10.6Z" fill="#000000" fill-opacity="0.92"/>
<path d="M8.99512 15.4C8.66375 15.4 8.39512 15.6686 8.39512 16C8.39512 16.3314 8.66375 16.6 8.99512 16.6V15.4ZM18.9951 16.6C19.3265 16.6 19.5951 16.3314 19.5951 16C19.5951 15.6686 19.3265 15.4 18.9951 15.4V16.6ZM8.99512 16.6H18.9951V15.4H8.99512V16.6Z" fill="#000000" fill-opacity="0.92"/>
</svg>
