<svg width="50" height="75" viewBox="0 0 50 75" fill="none" xmlns="http://www.w3.org/2000/svg">
<path d="M0.221115 38.4188C-0.2184 39.1448 0.0160081 40.0905 0.7583 40.5395L11.1016 46.7678C11.8536 47.2167 12.8303 46.997 13.2894 46.2615C13.2894 46.2519 13.2991 46.2424 13.2991 46.2424C19.8528 35.5244 21.1616 37.0815 40.7346 46.1755C41.5258 46.5481 42.4732 46.2137 42.8541 45.44C42.8638 45.4304 42.8638 45.4113 42.8736 45.4017L47.7962 34.5023C48.1478 33.7285 47.7864 32.821 47.0051 32.4676C44.8368 31.4741 40.5393 29.4872 36.6618 27.6626C12.4494 16.1422 4.35256 32.0281 0.221115 38.4188ZM49.7789 8.60521C50.2184 7.87922 49.984 6.93351 49.2417 6.48454L38.9082 0.265812C38.1757 -0.211817 37.1892 -0.0303175 36.7009 0.686126C36.6813 0.714784 36.6618 0.743441 36.6423 0.781652C30.0691 11.5379 28.7212 9.91392 9.23606 0.867625C8.44493 0.495074 7.49753 0.829414 7.11662 1.60317C7.10685 1.61273 7.10685 1.63183 7.09708 1.64138L2.16475 12.5409C1.81314 13.3146 2.17452 14.2221 2.95588 14.5756C5.12415 15.569 9.4314 17.556 13.3089 19.3901C37.5311 30.8532 45.6181 15.0532 49.7789 8.60521Z" fill="white"/>
<path d="M2.745 67.665H6.405V69H1.035V58.41H2.745V67.665ZM12.649 58.275C13.629 58.275 14.514 58.505 15.304 58.965C16.104 59.425 16.729 60.07 17.179 60.9C17.639 61.72 17.869 62.65 17.869 63.69C17.869 64.73 17.639 65.665 17.179 66.495C16.729 67.315 16.104 67.96 15.304 68.43C14.514 68.89 13.629 69.12 12.649 69.12C11.659 69.12 10.764 68.89 9.96398 68.43C9.17398 67.96 8.54898 67.315 8.08898 66.495C7.62898 65.665 7.39898 64.73 7.39898 63.69C7.39898 62.65 7.62898 61.72 8.08898 60.9C8.54898 60.07 9.17398 59.425 9.96398 58.965C10.764 58.505 11.659 58.275 12.649 58.275ZM12.649 59.865C11.969 59.865 11.364 60.02 10.834 60.33C10.304 60.64 9.88898 61.085 9.58898 61.665C9.29898 62.245 9.15398 62.92 9.15398 63.69C9.15398 64.46 9.29898 65.135 9.58898 65.715C9.88898 66.295 10.304 66.74 10.834 67.05C11.364 67.36 11.969 67.515 12.649 67.515C13.319 67.515 13.914 67.36 14.434 67.05C14.964 66.74 15.374 66.295 15.664 65.715C15.964 65.135 16.114 64.46 16.114 63.69C16.114 62.92 15.964 62.245 15.664 61.665C15.374 61.085 14.964 60.64 14.434 60.33C13.914 60.02 13.319 59.865 12.649 59.865ZM24.4396 58.32C25.6996 58.32 26.7496 58.63 27.5896 59.25C28.4296 59.87 28.9846 60.715 29.2546 61.785H27.4546C27.2246 61.215 26.8446 60.76 26.3146 60.42C25.7946 60.08 25.1746 59.91 24.4546 59.91C23.7946 59.91 23.1996 60.065 22.6696 60.375C22.1496 60.685 21.7396 61.125 21.4396 61.695C21.1496 62.265 21.0046 62.935 21.0046 63.705C21.0046 64.515 21.1546 65.21 21.4546 65.79C21.7546 66.37 22.1746 66.815 22.7146 67.125C23.2646 67.425 23.8996 67.575 24.6196 67.575C25.4996 67.575 26.2546 67.305 26.8846 66.765C27.5146 66.215 27.8946 65.465 28.0246 64.515H24.1396V63.255H29.4646V64.89C29.3446 65.67 29.0646 66.38 28.6246 67.02C28.1946 67.65 27.6196 68.155 26.8996 68.535C26.1896 68.915 25.3746 69.105 24.4546 69.105C23.4246 69.105 22.5146 68.875 21.7246 68.415C20.9346 67.955 20.3246 67.32 19.8946 66.51C19.4646 65.69 19.2496 64.755 19.2496 63.705C19.2496 62.655 19.4646 61.725 19.8946 60.915C20.3246 60.095 20.9296 59.46 21.7096 59.01C22.4996 58.55 23.4096 58.32 24.4396 58.32ZM36.1011 58.275C37.0811 58.275 37.9661 58.505 38.7561 58.965C39.5561 59.425 40.1811 60.07 40.6311 60.9C41.0911 61.72 41.3211 62.65 41.3211 63.69C41.3211 64.73 41.0911 65.665 40.6311 66.495C40.1811 67.315 39.5561 67.96 38.7561 68.43C37.9661 68.89 37.0811 69.12 36.1011 69.12C35.1111 69.12 34.2161 68.89 33.4161 68.43C32.6261 67.96 32.0011 67.315 31.5411 66.495C31.0811 65.665 30.8511 64.73 30.8511 63.69C30.8511 62.65 31.0811 61.72 31.5411 60.9C32.0011 60.07 32.6261 59.425 33.4161 58.965C34.2161 58.505 35.1111 58.275 36.1011 58.275ZM36.1011 59.865C35.4211 59.865 34.8161 60.02 34.2861 60.33C33.7561 60.64 33.3411 61.085 33.0411 61.665C32.7511 62.245 32.6061 62.92 32.6061 63.69C32.6061 64.46 32.7511 65.135 33.0411 65.715C33.3411 66.295 33.7561 66.74 34.2861 67.05C34.8161 67.36 35.4211 67.515 36.1011 67.515C36.7711 67.515 37.3661 67.36 37.8861 67.05C38.4161 66.74 38.8261 66.295 39.1161 65.715C39.4161 65.135 39.5661 64.46 39.5661 63.69C39.5661 62.92 39.4161 62.245 39.1161 61.665C38.8261 61.085 38.4161 60.64 37.8861 60.33C37.3661 60.02 36.7711 59.865 36.1011 59.865Z" fill="white"/>
</svg>
