<svg width="98" height="19" viewBox="0 0 98 19" fill="none" xmlns="http://www.w3.org/2000/svg">
<path d="M86.6589 10.5641C86.1557 10.2337 85.6012 9.99873 85.0764 9.70502C84.736 9.5141 84.3733 9.34517 84.0779 9.10286C83.5747 8.69167 83.6783 7.88397 84.2037 7.5315C84.958 7.03219 86.2075 7.31117 86.3407 8.33188C86.3407 8.35387 86.3629 8.3686 86.3851 8.3686H87.5242C87.5538 8.3686 87.576 8.34656 87.5686 8.31721C87.5094 7.61225 87.2356 7.02482 86.7329 6.65033C86.2519 6.29053 85.7048 6.09961 85.1202 6.09961C82.1105 6.09961 81.8367 9.26442 83.4563 10.2631C83.6413 10.3806 85.2312 11.1736 85.7936 11.5187C86.3555 11.8638 86.5331 12.4953 86.2889 12.9946C86.0669 13.4499 85.4902 13.7657 84.9136 13.7289C84.2845 13.6922 83.7967 13.3545 83.6265 12.8257C83.5969 12.7303 83.5821 12.5467 83.5821 12.466C83.5821 12.4439 83.5599 12.4219 83.5377 12.4219H82.3029C82.2807 12.4219 82.2585 12.4439 82.2585 12.466C82.2585 13.3545 82.4806 13.8464 83.0868 14.2944C83.6561 14.7202 84.2771 14.8965 84.921 14.8965C86.6071 14.8965 87.4798 13.9492 87.6568 12.9653C87.8122 12.0033 87.5242 11.1369 86.6589 10.5641Z" fill="white"/>
<path d="M33.0352 6.26147H32.4879H31.8889C31.8667 6.26147 31.8519 6.27616 31.8445 6.29085L30.8314 9.60986C30.8166 9.65394 30.7574 9.65394 30.7426 9.60986L29.7295 6.29085C29.7221 6.26881 29.7073 6.26147 29.6851 6.26147H29.0861H28.5388H27.7993C27.7771 6.26147 27.7549 6.2835 27.7549 6.30553V14.7793C27.7549 14.8013 27.7771 14.8234 27.7993 14.8234H29.0343C29.0565 14.8234 29.0787 14.8013 29.0787 14.7793V8.33952C29.0787 8.28812 29.1526 8.28081 29.1674 8.32484L30.188 11.6659L30.2619 11.9008C30.2693 11.9229 30.2841 11.9303 30.3063 11.9303H31.2529C31.2751 11.9303 31.2899 11.9155 31.2973 11.9008L31.3712 11.6659L32.3918 8.32484C32.4066 8.27344 32.4805 8.28812 32.4805 8.33952V14.7793C32.4805 14.8013 32.5027 14.8234 32.5249 14.8234H33.7599C33.7821 14.8234 33.8043 14.8013 33.8043 14.7793V6.30553C33.8043 6.2835 33.7821 6.26147 33.7599 6.26147H33.0352Z" fill="white"/>
<path d="M67.7486 6.26147C67.7264 6.26147 67.7116 6.27616 67.7042 6.29085L66.6915 9.60986C66.6767 9.65394 66.6175 9.65394 66.6027 9.60986L65.5894 6.29085C65.582 6.26881 65.5672 6.26147 65.545 6.26147H63.6665C63.6443 6.26147 63.6221 6.2835 63.6221 6.30553V14.7793C63.6221 14.8013 63.6443 14.8234 63.6665 14.8234H64.9018C64.924 14.8234 64.9462 14.8013 64.9462 14.7793V8.33952C64.9462 8.28812 65.0202 8.28081 65.035 8.32484L66.0551 11.6659L66.1291 11.9008C66.1365 11.9229 66.1513 11.9303 66.1735 11.9303H67.1202C67.1424 11.9303 67.1572 11.9155 67.1646 11.9008L67.2386 11.6659L68.2593 8.32484C68.2741 8.27344 68.3481 8.28812 68.3481 8.33952V14.7793C68.3481 14.8013 68.3703 14.8234 68.3925 14.8234H69.6272C69.6494 14.8234 69.6716 14.8013 69.6716 14.7793V6.30553C69.6716 6.2835 69.6494 6.26147 69.6272 6.26147H67.7486Z" fill="white"/>
<path d="M51.8192 6.26147H49.5193H48.2843H45.9843C45.9621 6.26147 45.9399 6.2835 45.9399 6.30553V7.36289C45.9399 7.38494 45.9621 7.40698 45.9843 7.40698H48.2399V14.7793C48.2399 14.8013 48.2621 14.8234 48.2843 14.8234H49.5193C49.5415 14.8234 49.5637 14.8013 49.5637 14.7793V7.40698H51.8192C51.8415 7.40698 51.8636 7.38494 51.8636 7.36289V6.30553C51.8636 6.2835 51.8489 6.26147 51.8192 6.26147Z" fill="white"/>
<path d="M59.1041 14.8229H60.2278C60.2574 14.8229 60.2796 14.7936 60.2722 14.7642L57.9502 6.26106C57.9428 6.23903 57.928 6.23169 57.9058 6.23169H57.477H56.7227H56.2937C56.2715 6.23169 56.2567 6.24638 56.2493 6.26106L53.9272 14.7642C53.9198 14.7936 53.942 14.8229 53.9716 14.8229H55.0957C55.1179 14.8229 55.1327 14.8083 55.1401 14.7936L55.8131 12.319C55.8204 12.297 55.8352 12.2896 55.8574 12.2896H58.3424C58.3647 12.2896 58.3795 12.3043 58.3869 12.319L59.0597 14.7936C59.0671 14.8083 59.0893 14.8229 59.1041 14.8229ZM56.1532 11.0781L57.0555 7.76635C57.0702 7.72231 57.1294 7.72231 57.1442 7.76635L58.0464 11.0781C58.0538 11.1074 58.0316 11.1368 58.002 11.1368H56.1976C56.168 11.1368 56.1458 11.1074 56.1532 11.0781Z" fill="white"/>
<path d="M78.2728 14.8229H79.3965C79.4261 14.8229 79.4483 14.7936 79.4409 14.7642L77.1189 6.26106C77.1115 6.23903 77.0967 6.23169 77.0745 6.23169H76.6458H75.8916H75.4623C75.4401 6.23169 75.4253 6.24638 75.4179 6.26106L73.0959 14.7642C73.0885 14.7936 73.1107 14.8229 73.1403 14.8229H74.2646C74.2868 14.8229 74.3016 14.8083 74.309 14.7936L74.9819 12.319C74.9893 12.297 75.0041 12.2896 75.0263 12.2896H77.5111C77.5333 12.2896 77.5481 12.3043 77.5555 12.319L78.2284 14.7936C78.2358 14.8083 78.2506 14.8229 78.2728 14.8229ZM75.3217 11.0781L76.224 7.76635C76.2388 7.72231 76.298 7.72231 76.3128 7.76635L77.2151 11.0781C77.2225 11.1074 77.2003 11.1368 77.1707 11.1368H75.3661C75.3365 11.1368 75.3143 11.1074 75.3217 11.0781Z" fill="white"/>
<path d="M38.8184 13.5677V10.9389C38.8184 10.9169 38.8406 10.8949 38.8628 10.8949H42.1537C42.1759 10.8949 42.1981 10.8728 42.1981 10.8508V9.7934C42.1981 9.77142 42.1759 9.74937 42.1537 9.74937H38.8628C38.8406 9.74937 38.8184 9.72733 38.8184 9.70528V7.45838C38.8184 7.43633 38.8406 7.41429 38.8628 7.41429H42.6048C42.627 7.41429 42.6492 7.39225 42.6492 7.37026V6.31286C42.6492 6.29083 42.627 6.2688 42.6048 6.2688H38.8184H37.539C37.5168 6.2688 37.4946 6.29083 37.4946 6.31286V7.41429V9.75668V10.9022V13.6191V14.7793C37.4946 14.8013 37.5168 14.8234 37.539 14.8234H38.8184H42.7601C42.7823 14.8234 42.8045 14.8013 42.8045 14.7793V13.6632C42.8045 13.6411 42.7823 13.6191 42.7601 13.6191H38.8554C38.8332 13.6118 38.8184 13.597 38.8184 13.5677Z" fill="white"/>
<path d="M97.9438 14.7499L93.6693 10.3662C93.6545 10.3515 93.6545 10.3221 93.6693 10.3074L97.5152 6.34223C97.5448 6.31286 97.5226 6.2688 97.4856 6.2688H95.9104C95.8956 6.2688 95.8882 6.27614 95.8808 6.28349L92.6195 9.64657C92.5899 9.67593 92.5455 9.65389 92.5455 9.61716V6.31286C92.5455 6.29083 92.5233 6.2688 92.5011 6.2688H91.2658C91.2436 6.2688 91.2214 6.29083 91.2214 6.31286V14.7866C91.2214 14.8087 91.2436 14.8307 91.2658 14.8307H92.5011C92.5233 14.8307 92.5455 14.8087 92.5455 14.7866V11.0564C92.5455 11.0197 92.5973 10.9977 92.6195 11.027L96.3169 14.816C96.3243 14.8234 96.3391 14.8307 96.3465 14.8307H97.9216C97.9512 14.8234 97.9734 14.772 97.9438 14.7499Z" fill="white"/>
<path d="M19.193 1L11.7163 6.50721L13.1067 3.26163L19.193 1Z" fill="#E17726" stroke="#E17726" stroke-width="0.25" stroke-linecap="round" stroke-linejoin="round"/>
<path d="M1.94678 1L9.35692 6.55861L8.03316 3.26163L1.94678 1Z" fill="#E27625" stroke="#E27625" stroke-width="0.25" stroke-linecap="round" stroke-linejoin="round"/>
<path d="M16.5006 13.7693L14.5112 16.7946L18.7709 17.9621L19.9912 13.8354L16.5006 13.7693Z" fill="#E27625" stroke="#E27625" stroke-width="0.25" stroke-linecap="round" stroke-linejoin="round"/>
<path d="M1.15527 13.8354L2.3681 17.9621L6.62044 16.7946L4.63847 13.7693L1.15527 13.8354Z" fill="#E27625" stroke="#E27625" stroke-width="0.25" stroke-linecap="round" stroke-linejoin="round"/>
<path d="M6.391 8.65834L5.20776 10.4353L9.4231 10.6263L9.28261 6.11035L6.391 8.65834Z" fill="#E27625" stroke="#E27625" stroke-width="0.25" stroke-linecap="round" stroke-linejoin="round"/>
<path d="M14.7484 8.65848L11.8125 6.05908L11.7163 10.6264L15.9316 10.4355L14.7484 8.65848Z" fill="#E27625" stroke="#E27625" stroke-width="0.25" stroke-linecap="round" stroke-linejoin="round"/>
<path d="M6.62061 16.7948L9.17197 15.5686L6.9756 13.865L6.62061 16.7948Z" fill="#E27625" stroke="#E27625" stroke-width="0.25" stroke-linecap="round" stroke-linejoin="round"/>
<path d="M11.9673 15.5686L14.5112 16.7948L14.1637 13.865L11.9673 15.5686Z" fill="#E27625" stroke="#E27625" stroke-width="0.25" stroke-linecap="round" stroke-linejoin="round"/>
<path d="M14.5112 16.7946L11.9673 15.5684L12.1743 17.2132L12.1521 17.9108L14.5112 16.7946Z" fill="#D5BFB2" stroke="#D5BFB2" stroke-width="0.25" stroke-linecap="round" stroke-linejoin="round"/>
<path d="M6.62061 16.7946L8.98713 17.9108L8.97233 17.2132L9.17197 15.5684L6.62061 16.7946Z" fill="#D5BFB2" stroke="#D5BFB2" stroke-width="0.25" stroke-linecap="round" stroke-linejoin="round"/>
<path d="M9.03134 12.778L6.91626 12.1612L8.41011 11.4783L9.03134 12.778Z" fill="#233447" stroke="#233447" stroke-width="0.25" stroke-linecap="round" stroke-linejoin="round"/>
<path d="M12.1079 12.778L12.7291 11.4783L14.2304 12.1612L12.1079 12.778Z" fill="#233447" stroke="#233447" stroke-width="0.25" stroke-linecap="round" stroke-linejoin="round"/>
<path d="M6.62109 16.7946L6.99088 13.7693L4.63916 13.8354L6.62109 16.7946Z" fill="#CC6228" stroke="#CC6228" stroke-width="0.25" stroke-linecap="round" stroke-linejoin="round"/>
<path d="M14.1484 13.7693L14.5108 16.7946L16.5002 13.8354L14.1484 13.7693Z" fill="#CC6228" stroke="#CC6228" stroke-width="0.25" stroke-linecap="round" stroke-linejoin="round"/>
<path d="M15.9316 10.4355L11.7163 10.6265L12.1082 12.778L12.7295 11.4782L14.2307 12.1612L15.9316 10.4355Z" fill="#CC6228" stroke="#CC6228" stroke-width="0.25" stroke-linecap="round" stroke-linejoin="round"/>
<path d="M6.91608 12.1612L8.40993 11.4782L9.03117 12.778L9.4231 10.6265L5.20776 10.4355L6.91608 12.1612Z" fill="#CC6228" stroke="#CC6228" stroke-width="0.25" stroke-linecap="round" stroke-linejoin="round"/>
<path d="M5.20776 10.4355L6.97526 13.8647L6.91606 12.1612L5.20776 10.4355Z" fill="#E27525" stroke="#E27525" stroke-width="0.25" stroke-linecap="round" stroke-linejoin="round"/>
<path d="M14.2304 12.1612L14.1638 13.8647L15.9313 10.4355L14.2304 12.1612Z" fill="#E27525" stroke="#E27525" stroke-width="0.25" stroke-linecap="round" stroke-linejoin="round"/>
<path d="M9.42349 10.6272L9.03149 12.7787L9.52698 15.3193L9.63793 11.971L9.42349 10.6272Z" fill="#E27525" stroke="#E27525" stroke-width="0.25" stroke-linecap="round" stroke-linejoin="round"/>
<path d="M11.7159 10.6272L11.5088 11.9637L11.6123 15.3193L12.1078 12.7787L11.7159 10.6272Z" fill="#E27525" stroke="#E27525" stroke-width="0.25" stroke-linecap="round" stroke-linejoin="round"/>
<path d="M12.1075 12.7777L11.6121 15.3183L11.9671 15.568L14.1635 13.8645L14.23 12.1609L12.1075 12.7777Z" fill="#F5841F" stroke="#F5841F" stroke-width="0.25" stroke-linecap="round" stroke-linejoin="round"/>
<path d="M6.91626 12.1609L6.97546 13.8645L9.17184 15.568L9.52683 15.3183L9.03134 12.7777L6.91626 12.1609Z" fill="#F5841F" stroke="#F5841F" stroke-width="0.25" stroke-linecap="round" stroke-linejoin="round"/>
<path d="M12.1523 17.9106L12.1745 17.213L11.9822 17.0514H9.15723L8.97233 17.213L8.98713 17.9106L6.62061 16.7944L7.44888 17.47L9.12762 18.6228H12.0044L13.6905 17.47L14.5114 16.7944L12.1523 17.9106Z" fill="#C0AC9D" stroke="#C0AC9D" stroke-width="0.25" stroke-linecap="round" stroke-linejoin="round"/>
<path d="M11.9673 15.5682L11.6123 15.3186H9.5268L9.17186 15.5682L8.97217 17.2131L9.15706 17.0515H11.9821L12.1744 17.2131L11.9673 15.5682Z" fill="#161616" stroke="#161616" stroke-width="0.25" stroke-linecap="round" stroke-linejoin="round"/>
<path d="M19.5105 6.867L20.1391 3.82704L19.1925 1L11.9673 6.32366L14.7479 8.65869L18.6748 9.79687L19.5401 8.79089L19.163 8.51917L19.7619 7.97583L19.3034 7.62335L19.9025 7.16808L19.5105 6.867Z" fill="#763E1A" stroke="#763E1A" stroke-width="0.25" stroke-linecap="round" stroke-linejoin="round"/>
<path d="M1 3.82704L1.636 6.867L1.22926 7.16808L1.83567 7.62335L1.37716 7.97583L1.97618 8.51917L1.59902 8.79089L2.46428 9.79687L6.39123 8.65869L9.17183 6.32366L1.9466 1L1 3.82704Z" fill="#763E1A" stroke="#763E1A" stroke-width="0.25" stroke-linecap="round" stroke-linejoin="round"/>
<path d="M18.675 9.79658L14.748 8.65845L15.9313 10.4355L14.1638 13.8646L16.5007 13.8352H19.9913L18.675 9.79658Z" fill="#F5841F" stroke="#F5841F" stroke-width="0.25" stroke-linecap="round" stroke-linejoin="round"/>
<path d="M6.39114 8.65845L2.46425 9.79658L1.15527 13.8352H4.63847L6.97537 13.8646L5.20792 10.4355L6.39114 8.65845Z" fill="#F5841F" stroke="#F5841F" stroke-width="0.25" stroke-linecap="round" stroke-linejoin="round"/>
<path d="M11.7161 10.6262L11.9675 6.32322L13.1064 3.26123H8.0332L9.17206 6.32322L9.42351 10.6262L9.51965 11.9773L9.52705 15.3184H11.6125L11.6199 11.9773L11.7161 10.6262Z" fill="#F5841F" stroke="#F5841F" stroke-width="0.25" stroke-linecap="round" stroke-linejoin="round"/>
</svg>
