<svg width="250" height="250" viewBox="0 0 250 250" fill="none" xmlns="http://www.w3.org/2000/svg">
<path d="M107.233 33C60.601 33 22.7862 70.7378 22.6572 117.337H22.6533V170.743H51.6528V117.58C51.6528 86.8839 76.5372 61.9994 107.233 61.9994H228.06V33H107.233Z" fill="#00CC9B"/>
<path d="M199.063 79.3984H107.233C86.5965 79.3984 69.7957 95.7718 69.0851 116.235L69.0505 116.227V117.581V170.843H144.355C146.515 170.843 147.59 168.222 146.051 166.705L128.432 149.33L115.448 136.527C115.448 136.527 107.347 127.881 104.331 124.831C103.028 123.512 99.9813 120.964 99.9813 117.581C99.9813 113.578 103.228 110.331 107.231 110.331H144.717H199.061V132.562C199.061 163.258 174.176 188.142 143.48 188.142H22.6533V217.142H143.48C190.113 217.142 227.927 179.404 228.056 132.805H228.06V110.331V79.3984H199.063Z" fill="black"/>
</svg>
